<svg width="104" height="37" viewBox="0 0 104 37" fill="none" xmlns="http://www.w3.org/2000/svg">
<path d="M18.6875 33.8021C27.1731 33.8021 34.0521 26.9231 34.0521 18.4375C34.0521 9.9519 27.1731 3.07294 18.6875 3.07294C10.2019 3.07294 3.32294 9.9519 3.32294 18.4375C3.32294 26.9231 10.2019 33.8021 18.6875 33.8021Z" stroke="#0088E4" stroke-width="3.07292" stroke-linecap="round" stroke-linejoin="round"/>
<path d="M18.6875 12.2917L12.5417 18.4375L18.6875 24.5834" stroke="#0088E4" stroke-width="3.07292" stroke-linecap="round" stroke-linejoin="round"/>
<path d="M24.8334 18.4375H12.5417" stroke="#0088E4" stroke-width="3.07292" stroke-linecap="round" stroke-linejoin="round"/>
<path d="M84.7552 33.8021C93.2408 33.8021 100.12 26.9231 100.12 18.4375C100.12 9.9519 93.2408 3.07294 84.7552 3.07294C76.2696 3.07294 69.3906 9.9519 69.3906 18.4375C69.3906 26.9231 76.2696 33.8021 84.7552 33.8021Z" stroke="#0088E4" stroke-width="3.07292" stroke-linecap="round" stroke-linejoin="round"/>
<path d="M84.7552 24.5834L90.9011 18.4375L84.7552 12.2917" stroke="#0088E4" stroke-width="3.07292" stroke-linecap="round" stroke-linejoin="round"/>
<path d="M78.6094 18.4375H90.901" stroke="#0088E4" stroke-width="3.07292" stroke-linecap="round" stroke-linejoin="round"/>
</svg>
